<?xml version="1.0" encoding="UTF-8" standalone="no"?>
<svg
   xmlns:dc="http://purl.org/dc/elements/1.1/"
   xmlns:cc="http://creativecommons.org/ns#"
   xmlns:rdf="http://www.w3.org/1999/02/22-rdf-syntax-ns#"
   xmlns:svg="http://www.w3.org/2000/svg"
   xmlns="http://www.w3.org/2000/svg"
   xmlns:sodipodi="http://sodipodi.sourceforge.net/DTD/sodipodi-0.dtd"
   xmlns:inkscape="http://www.inkscape.org/namespaces/inkscape"
   width="27px"
   height="32px"
   viewBox="0 0 27 32"
   version="1.1"
   id="svg3336"
   inkscape:version="0.91 r13725"
   sodipodi:docname="ic-logo_brown.svg"
   inkscape:export-filename="D:\cygwin64\home\Mikellos\Capstone\resources\images\ic-logo.png"
   inkscape:export-xdpi="281.25"
   inkscape:export-ydpi="281.25">
  <metadata
     id="metadata3370">
    <rdf:RDF>
      <cc:Work
         rdf:about="">
        <dc:format>image/svg+xml</dc:format>
        <dc:type
           rdf:resource="http://purl.org/dc/dcmitype/StillImage" />
        <dc:title>ic_home_brown</dc:title>
      </cc:Work>
    </rdf:RDF>
  </metadata>
  <sodipodi:namedview
     pagecolor="#ffffff"
     bordercolor="#666666"
     borderopacity="1"
     objecttolerance="10"
     gridtolerance="10"
     guidetolerance="10"
     inkscape:pageopacity="0"
     inkscape:pageshadow="2"
     inkscape:window-width="1481"
     inkscape:window-height="890"
     id="namedview3368"
     showgrid="false"
     inkscape:zoom="27.75"
     inkscape:cx="14.545045"
     inkscape:cy="18.882883"
     inkscape:window-x="165"
     inkscape:window-y="40"
     inkscape:window-maximized="0"
     inkscape:current-layer="ic_home" />
  <!-- Generator: Sketch 41.2 (35397) - http://www.bohemiancoding.com/sketch -->
  <title
     id="title3338">ic_home_brown</title>
  <desc
     id="desc3340">Created with Sketch.</desc>
  <defs
     id="defs3342">
    <filter
       x="-50%"
       y="-50%"
       width="200%"
       height="200%"
       filterUnits="objectBoundingBox"
       id="filter-1">
      <feOffset
         dx="0"
         dy="2"
         in="SourceAlpha"
         result="shadowOffsetOuter1"
         id="feOffset3345" />
      <feGaussianBlur
         stdDeviation="2"
         in="shadowOffsetOuter1"
         result="shadowBlurOuter1"
         id="feGaussianBlur3347" />
      <feColorMatrix
         values="0 0 0 0 0   0 0 0 0 0   0 0 0 0 0  0 0 0 0.05 0"
         type="matrix"
         in="shadowBlurOuter1"
         result="shadowMatrixOuter1"
         id="feColorMatrix3349" />
      <feMerge
         id="feMerge3351">
        <feMergeNode
           in="shadowMatrixOuter1"
           id="feMergeNode3353" />
        <feMergeNode
           in="SourceGraphic"
           id="feMergeNode3355" />
      </feMerge>
    </filter>
  </defs>
  <g
     id="OPt-2"
     stroke="none"
     stroke-width="1"
     fill="none"
     fill-rule="evenodd"
     inkscape:export-xdpi="30"
     inkscape:export-ydpi="30">
    <g
       id="prog2_pro3_Mobile-Portrait_opt2-Copy-2"
       transform="translate(-10.000000, -15.000000)"
       fill="#000000">
      <g
         id="nav">
        <g
           id="Group-6"
           filter="url(#filter-1)">
          <g
             id="ic_home"
             transform="translate(14.000000, 17.000000)">
            <path
               inkscape:connector-curvature="0"
               id="Shape"
               d="M 17.658064,6.8616831 16.764288,7.5539286 15.324546,8.6689525 C 15.13077,7.699766 14.569781,6.8666255 13.79384,6.3248754 L 16.565475,4.178329 15.707152,3.0392319 C 15.356359,2.5734622 15.444245,1.9073474 15.903634,1.5514934 l 2.089456,2.771348 c 0.309369,0.4105281 0.417405,0.9120773 0.342955,1.3849177 -0.0696,0.4425944 -0.29892,0.8603114 -0.677981,1.153924 l 0,0 z"
               style="fill:#270d00;fill-opacity:1" />
            <path
               inkscape:connector-curvature="0"
               id="path3364"
               d="m 8.872945,16.55128 c 3.091361,-1.620521 5.844244,-2.078747 6.538646,-0.965781 0.570318,0.913946 -0.39996,2.647244 -2.299279,4.422352 l 1.802944,2.932343 1.227962,0 C 16.708031,22.955896 17.16145,23.423747 17.16145,24 l -1.594615,0 -2.114086,0 -0.651579,-1.059806 -1.044821,-1.699435 -0.408356,-0.663845 c 0.144048,-0.239127 0.227735,-0.519496 0.227735,-0.820109 0,-0.870788 -0.696267,-1.576845 -1.555337,-1.576845 -0.047674,0 -0.094229,0.0046 -0.1407834,0.0087 l -1.0066626,-1.637384 0,0 z"
               style="fill:#270d00;fill-opacity:1" />
            <path
               inkscape:connector-curvature="0"
               id="path3366"
               d="M 0.226371,6.452858 C 0.387772,5.6651215 1.075924,5.0729538 1.900845,5.0729538 c 0.235479,0 0.459763,0.048431 0.663707,0.1355499 0.614915,0.2628942 1.046781,0.8795141 1.046781,1.5986949 l 0,8.2239934 c 0,0.585901 0.468532,1.061223 1.046782,1.061223 0.42095,0 0.783031,-0.252653 0.949192,-0.615956 0.01474,-0.03226 0.02799,-0.06558 0.03956,-0.09944 L 6.618824,12.934684 4.732195,6.4808568 c -0.0013,-0.00414 -0.0031,-0.00849 -0.0044,-0.012864 C 4.704845,6.3957248 4.684695,6.3234565 4.665005,6.2509991 3.977894,3.7220897 5.214438,1.0821292 7.526591,0 l 4.443686,1.5664388 c 0.545502,0.1888997 0.837144,0.7892024 0.653631,1.3425639 l -1.125336,-0.407974 c -0.444835,-0.1613024 -0.934265,0.073569 -1.093334,0.524393 -0.15907,0.4508239 0.07258,0.9472411 0.517325,1.1084493 l 1.161068,0.4209096 C 11.880899,5.0986827 11.283618,5.3767822 10.744088,5.1759878 L 9.5178995,4.71937 c -0.087045,0.5002248 0.19023,1.005983 0.6778885,1.1825857 l 2.349005,0.8666494 c 0.990989,0.4294464 1.693881,1.4071467 1.742582,2.5566248 0.0018,0.042188 0.0047,0.084187 0.0047,0.1267762 0,0.026084 -0.0026,0.051648 -0.0034,0.077566 0.0047,-0.011942 0.0076,-0.019864 0.0076,-0.019864 l 3.66653,0 0,-1.4334666 c 0,-0.4005961 0.488591,-0.7489777 0.79824,-0.9296473 l 0.24854,-0.1316717 0,3.5129465 c -0.01325,0.988862 -0.806823,1.786554 -1.78531,1.786554 l -4.135624,0 c -0.366279,0 -0.722296,0.04417 -1.063386,0.127061 0.01666,-0.0041 0.03307,-0.01019 0.04966,-0.01502 -0.01787,0.0053 -0.03575,0.01062 -0.05395,0.01502 -0.01063,0.0026 -0.02136,0.0055 -0.03209,0.0082 -1.843154,0.462459 -3.2429663,2.064582 -3.4293713,4.026888 -0.0032,0.03424 -0.0052,0.06884 -0.0077,0.10346 -0.0083,0.113699 -0.01381,0.227965 -0.01381,0.343746 0,1.104641 0.38354,2.118286 1.0226168,2.912313 0.046835,0.05825 0.095069,0.115401 0.1446092,0.171188 0.1305206,0.188614 0.2078633,0.417905 0.2078633,0.665926 0,0.641898 -0.5134076,1.162343 -1.1466073,1.162343 -0.227829,0 -0.439984,-0.06735 -0.618366,-0.183297 l -2.321483,-1.389172 c -0.320285,0.181616 -0.536918,0.528176 -0.536918,0.926619 0,0.26332 0.0946,0.504529 0.251339,0.68993 l 0.963375,1.060561 1.175155,0 5.6e-4,0 0.05691,0 C 8.301694,22.955896 8.755112,23.423747 8.755112,24 l -2.093188,0 -3.74e-4,0 -1.263785,0 c 0,-1.000403 -0.799827,-1.811243 -1.786432,-1.811243 l 0,-3.089555 c 0.818671,-0.165346 1.435824,-0.897273 1.435824,-1.775864 0,-0.04406 -0.0021,-0.08778 -0.0051,-0.131269 -0.104678,0.01587 -0.210662,0.02684 -0.319725,0.02684 -0.406956,0 -0.786111,-0.116348 -1.110968,-0.314966 C 2.984789,16.52101 2.564583,15.826731 2.564583,15.031192 l 0,-8.2239934 c 0,-0.3831914 -0.306383,-0.6937124 -0.68423,-0.6937124 -0.364508,0 -0.661656,0.289238 -0.682182,0.6538183 0.470026,0.3262232 0.778649,0.8738383 0.778649,1.4949981 0,1.0003072 -0.799733,1.8111484 -1.786432,1.8111484 l 0,-3.2662524 c 0,-0.1214559 0.0125,-0.2397904 0.03601,-0.3543406 l 0,0 z"
               style="fill:#270d00;fill-opacity:1" />
          </g>
        </g>
      </g>
    </g>
    <rect
       style="fill:#391300;fill-opacity:0"
       id="rect3372"
       width="4.072072"
       height="4.108108"
       x="4.2882881"
       y="9.2252254" />
  </g>
</svg>
